# xmcd
#
# Track frame offsets:
#	150
#	24131
#	41897
#	59818
#	81795
#	101096
#	120671
#	136355
#	154560
#
# Disc length: 2257 seconds
#
# Revision: 24
# Processed by: cddbd v1.5.2PL0 Copyright (c) Steve Scherf et al.
# Submitted via: Jack! The Knife 20 Magnifico
#
DISCID=7308cf09
DTITLE=Children Of Bodom - Are You Dead Yet?
DYEAR=2005
DGENRE=Metal
TTITLE0=Living Dead Beat
TTITLE1=Are You Dead Yet?
TTITLE2=If You Want Peace... Prepare For War
TTITLE3=Punch Me I Bleed
TTITLE4=In Your Face
TTITLE5=Next In Line
TTITLE6=Bastards Of Bodom
TTITLE7=Trashed, Lost and Strungout
TTITLE8=We're Not Gonna Fall
EXTD=Mikko Karmila and Anssi Kippo
EXTT0=Alexi Laiho
EXTT1=Alexi Laiho
EXTT2=Alexi Laiho
EXTT3=Alexi Laiho
EXTT4=Alexi Laiho
EXTT5=Alexi Laiho
EXTT6=Laiho, Latvala
EXTT7=Alexi Laiho
EXTT8=Alexi Laiho
PLAYORDER=
